<svg version="1.0" xmlns="http://www.w3.org/2000/svg" width="933.333" height="933.333" viewBox="0 0 700 700"><path d="M164.7 116.6c-.1.1-4 .4-8.6.8-4.6.3-8.7.8-9.1 1.1-.4.2-2 .6-3.6.9-10 1.8-26.2 8.9-36.9 16.2-24.9 17-41.1 41.9-46.7 71.9-1 5.5-1.3 35.5-1.3 140.5 0 73.4.3 136 .7 139 2.5 22.2 12.9 44.6 28 60.7 15 16 30 25.2 52.8 32.1 11.1 3.4 17.8 3.5 204.5 3.6 101.7.1 189.7-.2 195.5-.6 51.9-3.3 94.2-43.5 100.8-95.8.9-7.3.9-266.8-.1-274.5-5.8-49.5-45.9-89.1-96.2-95.2-3.9-.4-379.2-1.1-379.8-.7zm386.8 46.8c21.8 7.4 38.2 24 43.6 43.9.6 2.3 1.4 5.1 1.7 6.2.4 1.1.8 61.6.9 134.5.2 111.8 0 133.5-1.2 139.1-4.4 20.6-17.7 37.3-36.5 46.2-13.8 6.5 1.3 6.1-209 6.1-104.8 0-192.5-.4-194.9-.8-19.4-3.3-37.6-17-46.6-35.1-7.7-15.5-7.3-7.4-7.4-153 0-141.9-.2-137.7 5.7-150.8 9.4-20.6 26.9-34.4 48.5-38.1 5-.9 56.2-1.1 197-1.1l190.2.1 8 2.8z"/><path d="M161.7 205.1c-4.1 1.1-9.3 4.6-11.3 7.7-4.7 6.8-4.5 1.5-4.6 137v128.4l2.9 5.6c8.1 15.9 30.2 15.8 38.5-.1l2.2-4.2v-259l-2.1-4c-5.1-9.6-15.3-14.2-25.6-11.4zM305.9 234c-10.3 3.1-16.9 15.8-13.9 26.8 1.2 4.1 3.6 7 21.1 24.7l19.7 20-2 4c-2.6 5-7.4 17.9-8.3 22.5-.4 1.9-.9 8.9-1 15.5-.5 16.4 2.1 28.9 8.8 42.1l2.6 5.1-19 18.9c-10.4 10.4-19.6 20.4-20.5 22.2-6.7 14.1 3.7 31.2 18.9 31.2 9.2 0 11-1.3 31.5-21.5 10.6-10.4 19.7-19.2 20.2-19.3.6-.2 2.5.5 4.3 1.5 4.3 2.6 16.8 6.9 24.2 8.3 6.4 1.3 23.6 1.6 29.5.5 9-1.6 14-3.2 24.3-7.8l6.8-3 19.2 19.1c20.3 20.2 23.2 22.2 31.4 22.2 14.8-.1 24.9-13.9 20.6-28.3-1.3-4.5-3.6-7.2-20.6-24.5-10.6-10.6-19.3-19.5-19.4-19.6-.2-.1 1-3 2.6-6.2 6.5-13.4 8.7-24.2 8.4-40.9-.2-12.9-2.6-23.3-7.8-34.4-2-4.1-3.4-7.5-3.3-7.7.2-.2 8.2-8.3 17.9-18.1 10-10 18.7-19.7 19.9-22.1 7.4-14.2-3.6-31.2-20.3-31.2-7.1 0-10.6 2.5-29.9 21.7l-18.7 18.6-8.1-3.7c-16.3-7.4-34.2-9.7-52-6.5-9 1.6-20.9 5.6-25.7 8.7-1.2.8-2.7 1.2-3.2 1-.6-.1-9.5-8.7-19.9-19-11.9-11.8-20.3-19.2-22.7-20.2-3.9-1.7-11.2-2-15.6-.6zM420 308c31.7 8.4 42.6 49 19.3 72.5-9 9-21.4 13.8-34 12.9-37.2-2.5-54.1-47.9-27.6-74.2 11.2-11.2 26.8-15.3 42.3-11.2z"/></svg>